<svg xmlns="http://www.w3.org/2000/svg" xmlns:xlink="http://www.w3.org/1999/xlink" viewBox="0 0 111.01 47.43"><defs><style>.cls-1{fill:url(#Degradado_sin_nombre_17);}.cls-2{fill:none;}.cls-3{fill:url(#Degradado_sin_nombre_96);}.cls-4{fill:url(#Degradado_sin_nombre_96-2);}.cls-5{fill:url(#Degradado_sin_nombre_96-3);}.cls-6{fill:url(#Degradado_sin_nombre_96-4);}.cls-7{fill:url(#Degradado_sin_nombre_13);}.cls-8{fill:url(#Degradado_sin_nombre_14);}.cls-21,.cls-28,.cls-9{opacity:0.8;}.cls-9{fill:url(#Degradado_sin_nombre_14-2);}.cls-10{fill:url(#Degradado_sin_nombre_52);}.cls-11{fill:url(#Degradado_sin_nombre_96-5);}.cls-12{fill:url(#Degradado_sin_nombre_96-6);}.cls-13{fill:url(#Degradado_sin_nombre_96-7);}.cls-14{fill:url(#Degradado_sin_nombre_96-8);}.cls-15{fill:url(#Degradado_sin_nombre_13-2);}.cls-16{fill:url(#Degradado_sin_nombre_14-3);}.cls-17{fill:url(#Degradado_sin_nombre_13-3);}.cls-18{fill:url(#Degradado_sin_nombre_18);}.cls-19{clip-path:url(#clip-path);}.cls-20{fill:url(#Degradado_sin_nombre_96-9);}.cls-21{fill:url(#Degradado_sin_nombre_92);}.cls-22{fill:#43719f;}.cls-23{fill:url(#Degradado_sin_nombre_14-4);}.cls-24{fill:url(#Degradado_sin_nombre_14-5);}.cls-25{fill:url(#Degradado_sin_nombre_13-4);}.cls-26{fill:url(#Degradado_sin_nombre_14-6);}.cls-27{fill:url(#Degradado_sin_nombre_2);}.cls-28{fill:url(#Degradado_sin_nombre_14-7);}.cls-29{fill:url(#Degradado_sin_nombre_52-2);}.cls-30{fill:url(#Degradado_sin_nombre_2-2);}.cls-31{fill:#eec700;}.cls-32{fill:url(#Degradado_sin_nombre_52-3);}.cls-33{fill:url(#Degradado_sin_nombre_52-4);}.cls-34{fill:#75a93a;stroke:#fff;stroke-miterlimit:10;stroke-width:3.73px;}.cls-35{fill:#7fab38;}</style><linearGradient id="Degradado_sin_nombre_17" x1="61.25" y1="38.22" x2="83.64" y2="38.22" gradientTransform="matrix(-1, 0, 0, 1, 110.8, 0)" gradientUnits="userSpaceOnUse"><stop offset="0" stop-color="#43719f"/><stop offset="1" stop-color="#fff"/></linearGradient><linearGradient id="Degradado_sin_nombre_96" x1="89.88" y1="94.6" x2="64.58" y2="74.29" gradientTransform="translate(-76.34 96.93) rotate(-90)" gradientUnits="userSpaceOnUse"><stop offset="0" stop-color="#4f8ec9"/><stop offset="1" stop-color="#000012"/></linearGradient><linearGradient id="Degradado_sin_nombre_96-2" x1="183.65" y1="169.86" x2="65.34" y2="74.9" xlink:href="#Degradado_sin_nombre_96"/><linearGradient id="Degradado_sin_nombre_96-3" x1="90.08" y1="94.35" x2="64.78" y2="74.04" xlink:href="#Degradado_sin_nombre_96"/><linearGradient id="Degradado_sin_nombre_96-4" x1="183.85" y1="169.61" x2="65.54" y2="74.65" xlink:href="#Degradado_sin_nombre_96"/><linearGradient id="Degradado_sin_nombre_13" x1="94.01" y1="102.12" x2="70.27" y2="77.37" gradientTransform="translate(-76.34 96.93) rotate(-90)" gradientUnits="userSpaceOnUse"><stop offset="0" stop-color="#4f8ec9"/><stop offset="1" stop-color="#002035"/></linearGradient><linearGradient id="Degradado_sin_nombre_14" x1="98.26" y1="96.96" x2="68.75" y2="71.49" gradientTransform="translate(-76.34 96.93) rotate(-90)" gradientUnits="userSpaceOnUse"><stop offset="0" stop-color="#508ec9"/><stop offset="1" stop-color="#002035"/></linearGradient><linearGradient id="Degradado_sin_nombre_14-2" x1="65.05" y1="85.2" x2="100.09" y2="85.2" xlink:href="#Degradado_sin_nombre_14"/><radialGradient id="Degradado_sin_nombre_52" cx="53.27" cy="89.27" r="10.23" gradientTransform="matrix(0, -1.01, 1, 0, -78.29, 75)" gradientUnits="userSpaceOnUse"><stop offset="0" stop-color="#fff"/><stop offset="0.12" stop-color="#fff" stop-opacity="0.98"/><stop offset="0.24" stop-color="#fff" stop-opacity="0.94"/><stop offset="0.36" stop-color="#fff" stop-opacity="0.85"/><stop offset="0.48" stop-color="#fff" stop-opacity="0.74"/><stop offset="0.6" stop-color="#fff" stop-opacity="0.59"/><stop offset="0.73" stop-color="#fff" stop-opacity="0.42"/><stop offset="0.85" stop-color="#fff" stop-opacity="0.21"/><stop offset="0.96" stop-color="#fff" stop-opacity="0"/></radialGradient><linearGradient id="Degradado_sin_nombre_96-5" x1="74.79" y1="96.18" x2="49.49" y2="75.88" xlink:href="#Degradado_sin_nombre_96"/><linearGradient id="Degradado_sin_nombre_96-6" x1="168.57" y1="171.45" x2="50.25" y2="76.48" xlink:href="#Degradado_sin_nombre_96"/><linearGradient id="Degradado_sin_nombre_96-7" x1="74.99" y1="95.93" x2="49.69" y2="75.63" xlink:href="#Degradado_sin_nombre_96"/><linearGradient id="Degradado_sin_nombre_96-8" x1="168.77" y1="171.2" x2="50.45" y2="76.23" xlink:href="#Degradado_sin_nombre_96"/><linearGradient id="Degradado_sin_nombre_13-2" x1="78.92" y1="103.71" x2="55.18" y2="78.96" xlink:href="#Degradado_sin_nombre_13"/><linearGradient id="Degradado_sin_nombre_14-3" x1="83.18" y1="98.55" x2="53.66" y2="73.08" xlink:href="#Degradado_sin_nombre_14"/><linearGradient id="Degradado_sin_nombre_13-3" x1="49.96" y1="96.73" x2="80.68" y2="96.73" xlink:href="#Degradado_sin_nombre_13"/><linearGradient id="Degradado_sin_nombre_18" x1="81.75" y1="107.35" x2="43.25" y2="104.37" gradientTransform="matrix(0, -1.01, 1, 0, -78.29, 75)" xlink:href="#Degradado_sin_nombre_52"/><clipPath id="clip-path"><rect class="cls-1" x="27.15" y="37.69" width="22.4" height="1.06"/></clipPath><linearGradient id="Degradado_sin_nombre_96-9" x1="59.34" y1="39.8" x2="63.13" y2="45.94" gradientTransform="matrix(1, 0, 0, 1, 0, 0)" xlink:href="#Degradado_sin_nombre_96"/><linearGradient id="Degradado_sin_nombre_92" x1="53.45" y1="44.55" x2="64.32" y2="44.55" gradientUnits="userSpaceOnUse"><stop offset="0" stop-color="#4f8ec9"/><stop offset="1" stop-color="#00263e"/></linearGradient><linearGradient id="Degradado_sin_nombre_14-4" x1="55.78" y1="42.01" x2="65.18" y2="42.06" gradientTransform="matrix(1, 0, 0, 1, 0, 0)" xlink:href="#Degradado_sin_nombre_14"/><linearGradient id="Degradado_sin_nombre_14-5" x1="58.76" y1="40.96" x2="62.82" y2="47.51" gradientTransform="matrix(1, 0, 0, 1, 0, 0)" xlink:href="#Degradado_sin_nombre_14"/><linearGradient id="Degradado_sin_nombre_13-4" x1="63.54" y1="37.71" x2="56.04" y2="29.89" gradientTransform="matrix(1, 0, 0, 1, 0, 0)" xlink:href="#Degradado_sin_nombre_13"/><linearGradient id="Degradado_sin_nombre_14-6" x1="64.89" y1="36.08" x2="55.56" y2="28.03" gradientTransform="matrix(1, 0, 0, 1, 0, 0)" xlink:href="#Degradado_sin_nombre_14"/><linearGradient id="Degradado_sin_nombre_2" x1="62.69" y1="33.69" x2="51.77" y2="41.45" gradientUnits="userSpaceOnUse"><stop offset="0" stop-color="#eec700"/><stop offset="1" stop-color="#e2a900"/></linearGradient><linearGradient id="Degradado_sin_nombre_14-7" x1="54.3" y1="37.51" x2="65.37" y2="37.51" gradientTransform="matrix(1, 0, 0, 1, 0, 0)" xlink:href="#Degradado_sin_nombre_14"/><radialGradient id="Degradado_sin_nombre_52-2" cx="35.4" cy="34.97" r="3.23" gradientTransform="translate(21.94 -1.96) scale(1.01 1)" xlink:href="#Degradado_sin_nombre_52"/><linearGradient id="Degradado_sin_nombre_2-2" x1="51.53" y1="38.56" x2="67.37" y2="38.56" xlink:href="#Degradado_sin_nombre_2"/><radialGradient id="Degradado_sin_nombre_52-3" cx="37.12" cy="40.36" r="6.82" gradientTransform="translate(21.94 -1.96) scale(1.01 1)" xlink:href="#Degradado_sin_nombre_52"/><radialGradient id="Degradado_sin_nombre_52-4" cx="31.58" cy="44.96" r="0.01" gradientTransform="translate(21.94 -1.96) scale(1.01 1)" xlink:href="#Degradado_sin_nombre_52"/></defs><title>logo-eventos</title><g id="Capa_2" data-name="Capa 2"><g id="banner"><path class="cls-2" d="M1.35,27.65q0,.16,0,.31v-.13C1.36,27.77,1.36,27.71,1.35,27.65Z"/><polygon class="cls-2" points="0 23.34 0 23.34 0 23.35 0 23.34"/><path class="cls-2" d="M1.35,27.57v0Z"/><path class="cls-3" d="M1.4,28.14c0-.06,0-.12,0-.18l0,.2h0v0Z"/><path class="cls-4" d="M1.4,28.14c0-.06,0-.12,0-.18l0,.2h0v0Z"/><path class="cls-5" d="M1.35,27.65s0-.05,0-.08Z"/><path class="cls-6" d="M1.35,27.65s0-.05,0-.08Z"/><path class="cls-7" d="M15.59,4.7a100.13,100.13,0,0,0-8.34,8.08,28.92,28.92,0,0,0-5.18,8.15,10.54,10.54,0,0,0-.61,2.33,3.44,3.44,0,0,0,0,.38h0a5.71,5.71,0,0,0,0,.61v0s0,.05,0,.08,0,.12,0,.18v.14c0,.06,0,.12,0,.18h0v0l.41.86a24.37,24.37,0,0,0,1.5,2.45c.28.39.23.3,1.38,1.77l.44.47.21.22a2.87,2.87,0,0,1-.48-1,5,5,0,0,1-.07-1.87,10.39,10.39,0,0,1,.6-2.27,18.55,18.55,0,0,1,1.12-2.39,33.59,33.59,0,0,1,3.92-5.53,98.27,98.27,0,0,1,8.18-7.92A6.9,6.9,0,0,0,20.9,4.78,3.75,3.75,0,0,0,19,3.7,4.15,4.15,0,0,0,15.59,4.7Z"/><path class="cls-8" d="M14.23,1.07A100.13,100.13,0,0,0,5.89,9.15,28.92,28.92,0,0,0,.71,17.3,10.54,10.54,0,0,0,.1,19.63a3.44,3.44,0,0,0,0,.38h0a5.51,5.51,0,0,0,0,.79c0,.09.05.56.07.62v.12l0,.06,0,.12,0,.06h0l.18.55c.58,1.51.67,1.75,1,2.36,0,0,.11.22.11.21v0h0c0-.07,0-.14,0-.21s0-.21,0-.31v-.1a5.71,5.71,0,0,1,0-.61h0a3.44,3.44,0,0,1,0-.38,10.54,10.54,0,0,1,.61-2.33,28.92,28.92,0,0,1,5.18-8.15A100.13,100.13,0,0,1,15.59,4.7,4.15,4.15,0,0,1,19,3.7,3.75,3.75,0,0,1,20.9,4.78h0c0,.05,0,.11,0,.16s0-.3,0-.61a3.57,3.57,0,0,0-.63-2.09,4.73,4.73,0,0,0-.72-1,3.75,3.75,0,0,0-2-1.19A4.15,4.15,0,0,0,14.23,1.07Z"/><path class="cls-9" d="M17.46,26.82c.12-2.3-.21-7.8-3.44-7.8a1.43,1.43,0,0,1-1-.35A31.2,31.2,0,0,1,6.56,23a6.35,6.35,0,0,1-3.41.69,4.92,4.92,0,0,1-1.72-.54A2.59,2.59,0,0,1,.19,21.68l0,.06h0l.18.52a18.92,18.92,0,0,0,1.07,2.56l.42.86a24.36,24.36,0,0,0,1.5,2.45c.28.39.23.3,1.38,1.77l.44.47.21.22.39.41A3.45,3.45,0,0,0,8,31.87c2.64.22,5.93-1.65,9.56-4.5A1.52,1.52,0,0,1,17.46,26.82Z"/><path class="cls-10" d="M18.66,25.85c2.84-3.77.55-7.14-3-9.23l-.1-.07c-3.31,2.92-6.4,5.34-9,6.49a6.35,6.35,0,0,1-3.41.69,4.92,4.92,0,0,1-1.72-.54A2.59,2.59,0,0,1,.19,21.68l0,.06h0l.18.52a18.92,18.92,0,0,0,1.07,2.56l.42.86a24.36,24.36,0,0,0,1.5,2.45c.28.39.23.3,1.38,1.77l.44.47.21.22.39.41A3.45,3.45,0,0,0,8,31.87c2.84.24,6.43-1.94,10.39-5.17A1.32,1.32,0,0,1,18.66,25.85Z"/><path class="cls-2" d="M2.94,42.74q0,.16,0,.31v-.13C2.95,42.86,2.94,42.8,2.94,42.74Z"/><polygon class="cls-2" points="1.59 38.43 1.59 38.43 1.59 38.44 1.59 38.43"/><path class="cls-2" d="M2.93,42.66v0Z"/><path class="cls-11" d="M3,43.23c0-.06,0-.12,0-.18l0,.2H3v0Z"/><path class="cls-12" d="M3,43.23c0-.06,0-.12,0-.18l0,.2H3v0Z"/><path class="cls-13" d="M2.94,42.74s0-.05,0-.08Z"/><path class="cls-14" d="M2.94,42.74s0-.05,0-.08Z"/><path class="cls-15" d="M17.18,19.79a100.13,100.13,0,0,0-8.34,8.08A28.92,28.92,0,0,0,3.66,36,10.54,10.54,0,0,0,3,38.36a3.44,3.44,0,0,0,0,.38H3a5.71,5.71,0,0,0,0,.61v0s0,.05,0,.08,0,.12,0,.18v.14c0,.06,0,.12,0,.18h0v0l.41.86A24.37,24.37,0,0,0,5,43.28c.28.39.23.3,1.38,1.77l.44.47.21.22a2.87,2.87,0,0,1-.48-1,5,5,0,0,1-.07-1.87,10.39,10.39,0,0,1,.6-2.27,18.55,18.55,0,0,1,1.12-2.39,33.59,33.59,0,0,1,3.92-5.53,98.27,98.27,0,0,1,8.18-7.92,6.9,6.9,0,0,0,2.22-4.86,3.75,3.75,0,0,0-1.91-1.07A4.15,4.15,0,0,0,17.18,19.79Z"/><path class="cls-16" d="M15.82,16.16a100.13,100.13,0,0,0-8.34,8.08A28.92,28.92,0,0,0,2.3,32.39a10.54,10.54,0,0,0-.61,2.33,3.44,3.44,0,0,0,0,.38h0a5.51,5.51,0,0,0,0,.79c0,.09.05.56.07.62v.12l0,.06,0,.12,0,.06h0l.18.55c.58,1.51.67,1.75,1,2.36,0,0,.11.22.11.21v0h0c0-.07,0-.14,0-.21s0-.21,0-.31v-.1a5.71,5.71,0,0,1,0-.61H3a3.44,3.44,0,0,1,0-.38A10.54,10.54,0,0,1,3.66,36a28.92,28.92,0,0,1,5.18-8.15,100.13,100.13,0,0,1,8.34-8.08,4.15,4.15,0,0,1,3.39-1,3.75,3.75,0,0,1,1.91,1.07h0c0,.05,0,.11,0,.16s0-.3,0-.61a3.57,3.57,0,0,0-.63-2.09,4.73,4.73,0,0,0-.72-1,3.75,3.75,0,0,0-2-1.19A4.15,4.15,0,0,0,15.82,16.16Z"/><path class="cls-17" d="M34.13,16.26C25.7,22.87,15,35,8.15,38.13a6.35,6.35,0,0,1-3.41.69A4.92,4.92,0,0,1,3,38.29a2.59,2.59,0,0,1-1.24-1.52l0,.06h0l.18.52A18.93,18.93,0,0,0,3,39.92l.42.86A24.37,24.37,0,0,0,5,43.23c.28.39.23.3,1.38,1.77l.44.47.21.22.39.41A3.45,3.45,0,0,0,9.57,47c7.13.6,19.07-14.07,29.43-22.24"/><path class="cls-18" d="M8.15,38.13a6.35,6.35,0,0,1-3.41.69A4.92,4.92,0,0,1,3,38.29a2.59,2.59,0,0,1-1.24-1.52l0,.06h0l.18.52A18.93,18.93,0,0,0,3,39.92l.42.86A24.37,24.37,0,0,0,5,43.23c.28.39.23.3,1.38,1.77l.44.47.21.22.39.41A3.45,3.45,0,0,0,9.57,47c6.95.58,18.46-13.32,28.63-21.6a39.07,39.07,0,0,1,6.56-4.48,13.56,13.56,0,0,1,3.78-1.36,3.36,3.36,0,0,1,.64-.05,2.64,2.64,0,0,1,1,.2,2.48,2.48,0,0,1,.33.17l.33.29s.75.86.58.48l-.52-1.1a25.72,25.72,0,0,0-1.58-2.73L48.78,16l.11.2-.11-.2-.27-.37a14.87,14.87,0,0,0-1.37-1.56,14.71,14.71,0,0,0-1.37-1.26l-.11-.08a3.5,3.5,0,0,0-1.15-.57,7.43,7.43,0,0,0-.74-.14L43.15,12c-2.22-.28-5.23,1.37-8.61,4C26.05,22.46,15.16,35,8.15,38.13Z"/><rect class="cls-1" x="27.15" y="37.69" width="22.4" height="1.06"/><g class="cls-19"><rect class="cls-1" x="27.15" y="37.69" width="22.4" height="1.06"/></g><path class="cls-20" d="M62.43,44.57h0Z"/><path class="cls-21" d="M62,44.53h0l.15,0Z"/><path class="cls-22" d="M73.3,39.33q0,.1,0,.17a.82.82,0,0,1,0,.12.34.34,0,0,1,0,.09l-.07.08a.84.84,0,0,1-.18.12,2.09,2.09,0,0,1-.32.14,2.81,2.81,0,0,1-.43.11,2.88,2.88,0,0,1-.52,0,2.79,2.79,0,0,1-1-.17,2,2,0,0,1-.75-.5,2.21,2.21,0,0,1-.47-.83,3.64,3.64,0,0,1-.17-1.15,3.59,3.59,0,0,1,.18-1.19,2.47,2.47,0,0,1,.51-.87,2.13,2.13,0,0,1,.78-.54,2.68,2.68,0,0,1,1-.18,2.46,2.46,0,0,1,.43,0l.38.1a1.94,1.94,0,0,1,.32.14,1,1,0,0,1,.2.13l.08.09a.34.34,0,0,1,0,.09,1,1,0,0,1,0,.13q0,.08,0,.19t0,.21a.53.53,0,0,1,0,.14.19.19,0,0,1,0,.08l-.07,0a.29.29,0,0,1-.16-.07l-.25-.16a2,2,0,0,0-.36-.16,1.55,1.55,0,0,0-.5-.07,1.23,1.23,0,0,0-.57.13,1.21,1.21,0,0,0-.43.37,1.7,1.7,0,0,0-.27.57,3.29,3.29,0,0,0,0,1.56,1.54,1.54,0,0,0,.28.56,1.12,1.12,0,0,0,.43.33,1.45,1.45,0,0,0,.57.11,1.65,1.65,0,0,0,.5-.07,2.12,2.12,0,0,0,.36-.15l.25-.15a.31.31,0,0,1,.15-.06l.07,0a.12.12,0,0,1,0,.06.63.63,0,0,1,0,.14Q73.3,39.19,73.3,39.33Z"/><path class="cls-22" d="M78.46,39.73a1.4,1.4,0,0,1,.06.23.14.14,0,0,1,0,.13.27.27,0,0,1-.16.05h-.65l-.18,0a.16.16,0,0,1-.09-.05.27.27,0,0,1,0-.09L77,38.93H75l-.34,1a.32.32,0,0,1,0,.1.18.18,0,0,1-.09.06l-.17,0h-.58a.23.23,0,0,1-.15-.06.16.16,0,0,1,0-.13,1.31,1.31,0,0,1,.06-.23l1.65-4.66a.4.4,0,0,1,.06-.11.21.21,0,0,1,.11-.06l.2,0h.73l.22,0a.22.22,0,0,1,.12.07.39.39,0,0,1,.06.12ZM76,35.88h0l-.76,2.23h1.51Z"/><path class="cls-22" d="M85.43,40a.12.12,0,0,1,0,.07.16.16,0,0,1-.08.05l-.16,0h-.5l-.16,0a.17.17,0,0,1-.08-.05.12.12,0,0,1,0-.07V35.71h0L82.84,40a.2.2,0,0,1-.05.09l-.1.05-.16,0H82l-.16,0-.1-.05a.16.16,0,0,1,0-.08l-1.49-4.27h0V40a.12.12,0,0,1,0,.07.16.16,0,0,1-.08.05l-.16,0h-.5l-.16,0a.16.16,0,0,1-.08-.05.12.12,0,0,1,0-.07V35.31a.42.42,0,0,1,.11-.32.41.41,0,0,1,.3-.11h.71a1.51,1.51,0,0,1,.33,0,.64.64,0,0,1,.24.1.58.58,0,0,1,.17.19,1.33,1.33,0,0,1,.12.29l1.16,3.13h0l1.2-3.12a1.63,1.63,0,0,1,.12-.29A.67.67,0,0,1,83.8,35a.49.49,0,0,1,.2-.1,1.06,1.06,0,0,1,.27,0H85a.58.58,0,0,1,.19,0,.33.33,0,0,1,.13.08.36.36,0,0,1,.08.13.56.56,0,0,1,0,.18Z"/><path class="cls-22" d="M89.76,39.71a1.57,1.57,0,0,1,0,.2.5.5,0,0,1,0,.13.16.16,0,0,1-.05.07l-.07,0H86.91a.34.34,0,0,1-.23-.08.32.32,0,0,1-.09-.26V35.22a.32.32,0,0,1,.09-.26.34.34,0,0,1,.23-.08h2.67l.07,0a.16.16,0,0,1,0,.07.53.53,0,0,1,0,.13,1.61,1.61,0,0,1,0,.2,1.53,1.53,0,0,1,0,.19.5.5,0,0,1,0,.13.17.17,0,0,1,0,.07l-.07,0H87.67V37h1.61l.07,0a.17.17,0,0,1,.05.07.47.47,0,0,1,0,.13,1.82,1.82,0,0,1,0,.39.47.47,0,0,1,0,.12.15.15,0,0,1-.05.07l-.07,0H87.67v1.48H89.6l.07,0a.16.16,0,0,1,.05.07.5.5,0,0,1,0,.13A1.57,1.57,0,0,1,89.76,39.71Z"/><path class="cls-22" d="M94.68,40a.16.16,0,0,1,0,.08.13.13,0,0,1-.08.05l-.18,0h-.6l-.16,0a.18.18,0,0,1-.08-.06.31.31,0,0,1,0-.08L93,38.8q-.09-.2-.17-.35a1.13,1.13,0,0,0-.18-.26.67.67,0,0,0-.23-.16.82.82,0,0,0-.31-.05H91.8v2a.11.11,0,0,1,0,.07.19.19,0,0,1-.09.05l-.17,0H91l-.17,0a.17.17,0,0,1-.09-.05.12.12,0,0,1,0-.07V35.22a.32.32,0,0,1,.09-.26.34.34,0,0,1,.23-.08h1.73l.25,0a2.28,2.28,0,0,1,.58.15,1.39,1.39,0,0,1,.44.29,1.19,1.19,0,0,1,.27.42,1.51,1.51,0,0,1,.09.55,1.6,1.6,0,0,1-.07.48,1.23,1.23,0,0,1-.2.39,1.31,1.31,0,0,1-.33.3,1.78,1.78,0,0,1-.44.2,1.24,1.24,0,0,1,.22.14,1.18,1.18,0,0,1,.2.2,1.89,1.89,0,0,1,.18.26,3.4,3.4,0,0,1,.16.33l.45,1,.08.23A.43.43,0,0,1,94.68,40Zm-1.4-3.56a.77.77,0,0,0-.12-.44.65.65,0,0,0-.39-.25l-.19,0H91.8v1.49h.55a1.35,1.35,0,0,0,.4-.05A.81.81,0,0,0,93,37a.63.63,0,0,0,.17-.24A.79.79,0,0,0,93.28,36.43Z"/><path class="cls-22" d="M98.55,38.56a1.6,1.6,0,0,1-.16.73,1.51,1.51,0,0,1-.43.52,1.86,1.86,0,0,1-.63.31,2.71,2.71,0,0,1-.77.11,2.78,2.78,0,0,1-.51,0,3,3,0,0,1-.42-.11,1.84,1.84,0,0,1-.3-.13.87.87,0,0,1-.18-.12.3.3,0,0,1-.08-.15,1.37,1.37,0,0,1,0-.29q0-.13,0-.21a.6.6,0,0,1,0-.14.15.15,0,0,1,0-.08l.07,0a.35.35,0,0,1,.16.07l.27.15a2.46,2.46,0,0,0,.39.15,1.9,1.9,0,0,0,.53.07,1.24,1.24,0,0,0,.35,0,.8.8,0,0,0,.27-.13.56.56,0,0,0,.17-.21.66.66,0,0,0,.06-.28.49.49,0,0,0-.1-.31,1,1,0,0,0-.26-.23,2.69,2.69,0,0,0-.36-.19l-.42-.18a3.83,3.83,0,0,1-.42-.22,1.68,1.68,0,0,1-.36-.3,1.39,1.39,0,0,1-.26-.41,1.45,1.45,0,0,1-.1-.56,1.47,1.47,0,0,1,.14-.66,1.36,1.36,0,0,1,.38-.47,1.64,1.64,0,0,1,.57-.28,2.53,2.53,0,0,1,.7-.09l.38,0,.35.08L98,35a.69.69,0,0,1,.17.1l.06.07a.33.33,0,0,1,0,.08.78.78,0,0,1,0,.12s0,.11,0,.18,0,.14,0,.2a.73.73,0,0,1,0,.13.16.16,0,0,1,0,.08.1.1,0,0,1-.07,0,.35.35,0,0,1-.14-.06l-.24-.12-.33-.12a1.5,1.5,0,0,0-.42-.05,1,1,0,0,0-.31,0,.64.64,0,0,0-.22.12.47.47,0,0,0-.13.18.58.58,0,0,0,0,.22.49.49,0,0,0,.1.3.92.92,0,0,0,.26.23,2.8,2.8,0,0,0,.37.19l.42.18a4.18,4.18,0,0,1,.42.22,1.69,1.69,0,0,1,.37.3,1.38,1.38,0,0,1,.26.41A1.4,1.4,0,0,1,98.55,38.56Z"/><path class="cls-22" d="M103.74,38.17a2.43,2.43,0,0,1-.14.86,1.69,1.69,0,0,1-.43.65,1.85,1.85,0,0,1-.69.4,3,3,0,0,1-.95.14,3.06,3.06,0,0,1-.9-.12,1.76,1.76,0,0,1-.68-.38,1.64,1.64,0,0,1-.42-.63,2.41,2.41,0,0,1-.15-.88V35a.12.12,0,0,1,0-.07.18.18,0,0,1,.09-.05l.17,0h.52l.17,0a.19.19,0,0,1,.09.05.11.11,0,0,1,0,.07v3.1a1.68,1.68,0,0,0,.08.54,1,1,0,0,0,.22.38.93.93,0,0,0,.35.23,1.31,1.31,0,0,0,.46.08,1.28,1.28,0,0,0,.46-.08.91.91,0,0,0,.34-.23,1,1,0,0,0,.22-.37,1.48,1.48,0,0,0,.08-.49V35a.12.12,0,0,1,0-.07.17.17,0,0,1,.09-.05l.17,0h.52l.16,0a.17.17,0,0,1,.09.05.12.12,0,0,1,0,.07Z"/><path class="cls-22" d="M108.86,40a.16.16,0,0,1,0,.08.13.13,0,0,1-.08.05l-.18,0H108l-.16,0a.18.18,0,0,1-.08-.06.31.31,0,0,1,0-.08l-.48-1.17q-.09-.2-.17-.35a1.13,1.13,0,0,0-.18-.26.67.67,0,0,0-.23-.16.82.82,0,0,0-.31-.05H106v2a.11.11,0,0,1,0,.07.19.19,0,0,1-.09.05l-.17,0h-.53l-.17,0a.17.17,0,0,1-.09-.05.12.12,0,0,1,0-.07V35.22A.32.32,0,0,1,105,35a.34.34,0,0,1,.23-.08H107l.25,0a2.28,2.28,0,0,1,.58.15,1.39,1.39,0,0,1,.44.29,1.19,1.19,0,0,1,.27.42,1.51,1.51,0,0,1,.09.55,1.6,1.6,0,0,1-.07.48,1.23,1.23,0,0,1-.2.39,1.31,1.31,0,0,1-.33.3,1.78,1.78,0,0,1-.44.2,1.24,1.24,0,0,1,.22.14,1.18,1.18,0,0,1,.2.2,1.89,1.89,0,0,1,.18.26,3.4,3.4,0,0,1,.16.33l.45,1,.08.23A.43.43,0,0,1,108.86,40Zm-1.4-3.56a.77.77,0,0,0-.12-.44.65.65,0,0,0-.39-.25l-.19,0H106v1.49h.55a1.35,1.35,0,0,0,.4-.05.81.81,0,0,0,.29-.15.63.63,0,0,0,.17-.24A.79.79,0,0,0,107.46,36.43Z"/><path class="cls-23" d="M64.91,43.66a1.56,1.56,0,0,1-.58.06,3.36,3.36,0,0,1-.73-.14,6.43,6.43,0,0,1-1-.38,11.61,11.61,0,0,1-1.7-1A24.6,24.6,0,0,1,58.6,40c-1.37-1.14-2.73-.45-3,.4a2.11,2.11,0,0,1,2,.51A24.59,24.59,0,0,0,60,43.1a9.36,9.36,0,0,0,2.67,1.41l.43.1.3,0a1.56,1.56,0,0,0,.58-.06.92.92,0,0,0,.2-.1l.05,0,.07,0a4.7,4.7,0,0,0,.49-.43,4.65,4.65,0,0,0,.4-.43A.89.89,0,0,1,64.91,43.66Z"/><path class="cls-24" d="M64,44.58a1.28,1.28,0,0,1-.27.06h-.46l-.15,0-.43-.1A9.36,9.36,0,0,1,60,43.1a24.59,24.59,0,0,1-2.32-2.16,2.11,2.11,0,0,0-2-.51,1,1,0,0,0,0,.19,1.36,1.36,0,0,0,.43,1,25.22,25.22,0,0,0,2.38,2.21,9.63,9.63,0,0,0,2.75,1.45,3.41,3.41,0,0,0,.76.14H62a1.58,1.58,0,0,0,.38,0s0,0,0,0,0-.07,0,0v0l0,0h0l.07,0h0l.2-.08.1,0,.25-.12a8.13,8.13,0,0,0,.86-.5l.23-.16A.92.92,0,0,1,64,44.58Z"/><path class="cls-25" d="M63,34.49a31.64,31.64,0,0,0-2.55-2.64,9.14,9.14,0,0,0-2.57-1.64,3.33,3.33,0,0,0-.74-.19H56.6l-.27.13a7.7,7.7,0,0,0-.77.47l-.56.44-.15.14-.07.07a.91.91,0,0,1,.32-.15,1.57,1.57,0,0,1,.59,0,3.28,3.28,0,0,1,.72.19,5.86,5.86,0,0,1,.76.35,10.61,10.61,0,0,1,1.75,1.24,31.05,31.05,0,0,1,2.5,2.58,2.18,2.18,0,0,0,1.54.7,1.18,1.18,0,0,0,.34-.61A1.31,1.31,0,0,0,63,34.49Z"/><path class="cls-26" d="M64.13,34.06a31.64,31.64,0,0,0-2.55-2.64A9.14,9.14,0,0,0,59,29.78a3.33,3.33,0,0,0-.74-.19h-.37l-.2,0h-.11l-.17.06c-.48.18-.55.21-.75.3l-.07,0h.52a3.33,3.33,0,0,1,.74.19,9.14,9.14,0,0,1,2.57,1.64A31.64,31.64,0,0,1,63,34.49a1.31,1.31,0,0,1,.32,1.07,1.18,1.18,0,0,1-.34.61h.14a1.13,1.13,0,0,0,.66-.2,1.49,1.49,0,0,0,.31-.23,1.19,1.19,0,0,0,.38-.62A1.31,1.31,0,0,0,64.13,34.06Z"/><path class="cls-27" d="M60.66,33.16a2.23,2.23,0,0,0-1.57.18l-1.66.77a21.22,21.22,0,0,0-2.87,1.77,10.26,10.26,0,0,0-2.64,2.63,3.14,3.14,0,0,0-.36.8,1,1,0,0,0,0,.13h0a3.15,3.15,0,0,0,0,.44h0l0,.21h0l.06.2a7.88,7.88,0,0,0,.54,1.29,8.07,8.07,0,0,0,1.06,1.55l.08.09.43.44a1,1,0,0,1-.28-.51,1.42,1.42,0,0,1,0-.67,3.09,3.09,0,0,1,.35-.78,10,10,0,0,1,2.57-2.56,20.47,20.47,0,0,1,2.79-1.72l.21-.14,1.19-.71a12.93,12.93,0,0,0,1.16-.77A1.77,1.77,0,0,0,60.66,33.16Z"/><path class="cls-28" d="M57.09,31.64a2,2,0,0,1-.22-1.08A1.55,1.55,0,0,1,57,30a.82.82,0,0,1,.48-.39h0l-.17.06a6,6,0,0,0-.81.34l-.27.13a7.7,7.7,0,0,0-.77.47l-.56.44-.15.14-.07.07-.13.12a1.09,1.09,0,0,0-.27.69c-.22,2.69,6.4,7.53,8.24,11.12A4.28,4.28,0,0,1,63,44.4a1.06,1.06,0,0,1,0,.2.83.83,0,0,1-.06.31l-.05.1-.09.11-.13.13-.22.14.2-.08.1,0,.25-.12a8.13,8.13,0,0,0,.86-.5l.23-.16-.06,0,.06,0,.12-.09a4.7,4.7,0,0,0,.49-.43,4.65,4.65,0,0,0,.4-.43l0,0a1.11,1.11,0,0,0,.18-.36,2.35,2.35,0,0,0,0-.23l0-.19C65.67,40.24,58.48,34.74,57.09,31.64Z"/><path class="cls-29" d="M57.09,31.64a2,2,0,0,1-.22-1.08A1.55,1.55,0,0,1,57,30a.82.82,0,0,1,.48-.39h0l-.17.06a6,6,0,0,0-.81.34l-.27.13a7.7,7.7,0,0,0-.77.47l-.56.44-.15.14-.07.07-.13.12a1.09,1.09,0,0,0-.27.69c-.22,2.69,6.4,7.53,8.24,11.12A4.28,4.28,0,0,1,63,44.4a1.06,1.06,0,0,1,0,.2.83.83,0,0,1-.06.31l-.05.1-.09.11-.13.13-.22.14.2-.08.1,0,.25-.12a8.13,8.13,0,0,0,.86-.5l.23-.16-.06,0,.06,0,.12-.09a4.7,4.7,0,0,0,.49-.43,4.65,4.65,0,0,0,.4-.43l0,0a1.11,1.11,0,0,0,.18-.36,2.35,2.35,0,0,0,0-.23l0-.19C65.67,40.24,58.48,34.74,57.09,31.64Z"/><path class="cls-30" d="M67.36,36.62l-.08-.43a7.76,7.76,0,0,0-.41-1.32c-.09-.22-.17-.42-.27-.63A14.39,14.39,0,0,0,65.76,33l0,.1c.09.17.22.37.26.48a5.54,5.54,0,0,1,.34,1.13l.08.43c.12.79-.59,2-2,3.21-.28.24-.59.49-.93.74C60.35,41.39,56,43,53.78,42.58a1.8,1.8,0,0,1-1-.42,5.45,5.45,0,0,1-1.17-1.68,8.46,8.46,0,0,0,.48,1.11,8.06,8.06,0,0,0,1.06,1.55l.06.07c-.12-.14-.43-.53,0,0l.43.44a1.8,1.8,0,0,0,1,.42c2.21.39,6.57-1.18,9.74-3.52.34-.25.65-.5.93-.74C66.77,38.58,67.48,37.42,67.36,36.62Z"/><path class="cls-31" d="M66.49,35.11l-.08-.43a5.54,5.54,0,0,0-.34-1.13c0-.11-.17-.31-.26-.48l-.08-.16c.17.75-.37,1.81-1.67,3l-.19.17-.17.15q-.44.38-1,.76c-3.26,2.4-7.74,4-10,3.62a3.24,3.24,0,0,1-1.18-.51h0v0l0,.13.06.19a5.45,5.45,0,0,0,1.17,1.68,1.8,1.8,0,0,0,1,.42c2.21.39,6.57-1.18,9.74-3.52.34-.25.65-.5.93-.74C65.9,37.06,66.62,35.9,66.49,35.11Z"/><path class="cls-32" d="M67.32,36.63l-.08-.43a7.76,7.76,0,0,0-.41-1.32c-.09-.22-.17-.42-.27-.63A14.39,14.39,0,0,0,65.72,33l0,.1-.08-.16c.17.75-.37,1.81-1.67,3l-.19.17-.17.15q-.44.38-1,.76c-3.26,2.4-7.74,4-10,3.62a3.24,3.24,0,0,1-1.18-.51h0l0-.06v0h0l0,.07a2.51,2.51,0,0,0,.1.31,8.46,8.46,0,0,0,.48,1.11,8.06,8.06,0,0,0,1.06,1.55l.06.07c-.12-.14-.43-.53,0,0l.43.44a1.8,1.8,0,0,0,1,.42c2.21.39,6.57-1.18,9.74-3.52.34-.25.65-.5.93-.74C66.73,38.58,67.44,37.42,67.32,36.63Z"/><path class="cls-33" d="M53.82,43.15l0,0Z"/><rect class="cls-2" x="49.5" y="27.58" width="61.51" height="19.84"/><path class="cls-34" d="M29.7,24.57a2.57,2.57,0,0,1,0,.37.8.8,0,0,1-.08.26.41.41,0,0,1-.14.15.32.32,0,0,1-.17,0H22a.83.83,0,0,1-.51-.18.76.76,0,0,1-.24-.64V11a.75.75,0,0,1,.24-.64.83.83,0,0,1,.51-.18h7.22a.32.32,0,0,1,.17,0,.33.33,0,0,1,.12.15,1.2,1.2,0,0,1,.08.26,2.22,2.22,0,0,1,0,.39,2.07,2.07,0,0,1,0,.37,1.08,1.08,0,0,1-.08.26.33.33,0,0,1-.12.15.32.32,0,0,1-.17,0h-6v4.77h5.1a.29.29,0,0,1,.17.05.44.44,0,0,1,.13.15.77.77,0,0,1,.08.26,2.8,2.8,0,0,1,0,.39,2.45,2.45,0,0,1,0,.36.75.75,0,0,1-.08.25.34.34,0,0,1-.13.14.35.35,0,0,1-.17,0h-5.1v5.45h6a.32.32,0,0,1,.17,0,.42.42,0,0,1,.14.15.73.73,0,0,1,.08.26A2.77,2.77,0,0,1,29.7,24.57Z"/><path class="cls-34" d="M39.15,25.05a.57.57,0,0,1-.13.21.56.56,0,0,1-.23.13,1.69,1.69,0,0,1-.38.06l-.57,0h-.45l-.33,0-.24-.05a.61.61,0,0,1-.17-.08.37.37,0,0,1-.11-.11.82.82,0,0,1-.08-.16l-5-14.14a1.44,1.44,0,0,1-.1-.42.27.27,0,0,1,.1-.24.68.68,0,0,1,.34-.11l.64,0,.52,0a1,1,0,0,1,.3.06.37.37,0,0,1,.16.12,1,1,0,0,1,.1.19L37.9,23.33h0l4.25-12.78a.92.92,0,0,1,.08-.21.31.31,0,0,1,.17-.13,1.18,1.18,0,0,1,.33-.06l.56,0a4.42,4.42,0,0,1,.58,0,.49.49,0,0,1,.29.11.29.29,0,0,1,.06.24,1.92,1.92,0,0,1-.11.42Z"/><path class="cls-34" d="M55.13,24.57a2.57,2.57,0,0,1,0,.37.8.8,0,0,1-.08.26.41.41,0,0,1-.14.15.32.32,0,0,1-.17,0h-7.3a.83.83,0,0,1-.51-.18.76.76,0,0,1-.24-.64V11a.75.75,0,0,1,.24-.64.83.83,0,0,1,.51-.18h7.22a.32.32,0,0,1,.17,0,.33.33,0,0,1,.12.15,1.2,1.2,0,0,1,.08.26A2.22,2.22,0,0,1,55,11a2.07,2.07,0,0,1,0,.37,1.08,1.08,0,0,1-.08.26.33.33,0,0,1-.12.15.32.32,0,0,1-.17,0h-6v4.77h5.1a.29.29,0,0,1,.17.05.44.44,0,0,1,.13.15.77.77,0,0,1,.08.26,2.8,2.8,0,0,1,0,.39,2.45,2.45,0,0,1,0,.36.75.75,0,0,1-.08.25.34.34,0,0,1-.13.14.35.35,0,0,1-.17,0h-5.1v5.45h6a.32.32,0,0,1,.17,0,.42.42,0,0,1,.14.15.73.73,0,0,1,.08.26A2.77,2.77,0,0,1,55.13,24.57Z"/><path class="cls-34" d="M69.93,24.57a.92.92,0,0,1-.08.4.79.79,0,0,1-.21.27.81.81,0,0,1-.29.15,1.11,1.11,0,0,1-.32,0h-.67a2.12,2.12,0,0,1-.55-.06,1.24,1.24,0,0,1-.45-.24,2.4,2.4,0,0,1-.43-.46,6.2,6.2,0,0,1-.45-.75l-4.64-8.66q-.36-.67-.73-1.41t-.69-1.43h0q0,.85,0,1.73t0,1.75V25.1a.29.29,0,0,1,0,.16.31.31,0,0,1-.17.12l-.31.07a4.05,4.05,0,0,1-1,0,1.62,1.62,0,0,1-.3-.07.31.31,0,0,1-.16-.12.29.29,0,0,1,0-.16v-14a.78.78,0,0,1,.27-.67,1,1,0,0,1,.58-.2h1a2.5,2.5,0,0,1,.59.06,1.24,1.24,0,0,1,.42.19,1.67,1.67,0,0,1,.36.38,5.17,5.17,0,0,1,.37.61l3.57,6.68.64,1.19.59,1.15.56,1.11.55,1.1h0q0-.93,0-1.93t0-1.93V10.53a.26.26,0,0,1,0-.15.4.4,0,0,1,.17-.12,1.1,1.1,0,0,1,.31-.08l.5,0,.47,0a1,1,0,0,1,.31.08.4.4,0,0,1,.16.12.26.26,0,0,1,0,.15Z"/><path class="cls-34" d="M83.51,11.06a2.79,2.79,0,0,1,0,.39.82.82,0,0,1-.08.26.37.37,0,0,1-.13.15.32.32,0,0,1-.17,0H78.83V25.1a.29.29,0,0,1,0,.16.32.32,0,0,1-.16.11l-.31.07a4,4,0,0,1-1,0,1.78,1.78,0,0,1-.32-.07.31.31,0,0,1-.16-.11.29.29,0,0,1,0-.16V11.91H72.53a.32.32,0,0,1-.17,0,.33.33,0,0,1-.12-.15,1.06,1.06,0,0,1-.08-.26,2.19,2.19,0,0,1,0-.39,2.3,2.3,0,0,1,0-.39,1.18,1.18,0,0,1,.08-.28.33.33,0,0,1,.12-.15.32.32,0,0,1,.17,0H83.11a.32.32,0,0,1,.17,0,.36.36,0,0,1,.13.15.91.91,0,0,1,.08.28A2.92,2.92,0,0,1,83.51,11.06Z"/><path class="cls-34" d="M97.78,17.62A11.8,11.8,0,0,1,97.34,21,7,7,0,0,1,96,23.47a5.67,5.67,0,0,1-2.17,1.6,7.7,7.7,0,0,1-3,.56,7.83,7.83,0,0,1-3-.51,5.22,5.22,0,0,1-2.07-1.49,6.35,6.35,0,0,1-1.22-2.42,12.53,12.53,0,0,1-.4-3.33,11.48,11.48,0,0,1,.44-3.27,6.81,6.81,0,0,1,1.31-2.5,5.78,5.78,0,0,1,2.18-1.59,8.66,8.66,0,0,1,6-.05,5.3,5.3,0,0,1,2.08,1.48,6.27,6.27,0,0,1,1.23,2.4A12,12,0,0,1,97.78,17.62Zm-2.14.14a11.91,11.91,0,0,0-.23-2.41,5.53,5.53,0,0,0-.76-1.93,3.68,3.68,0,0,0-1.43-1.28A4.8,4.8,0,0,0,91,11.69a4.51,4.51,0,0,0-2.21.49,4.16,4.16,0,0,0-1.45,1.32,5.48,5.48,0,0,0-.8,1.92,10.77,10.77,0,0,0-.24,2.31,12.75,12.75,0,0,0,.22,2.47,5.52,5.52,0,0,0,.75,1.95,3.6,3.6,0,0,0,1.42,1.27,4.86,4.86,0,0,0,2.23.45,4.6,4.6,0,0,0,2.23-.49A4,4,0,0,0,94.61,22a5.65,5.65,0,0,0,.79-1.95A11.23,11.23,0,0,0,95.64,17.76Z"/><path class="cls-34" d="M109.15,21.14a4.41,4.41,0,0,1-.39,1.91,4.09,4.09,0,0,1-1.09,1.42,4.74,4.74,0,0,1-1.65.88,6.84,6.84,0,0,1-2,.29,7.32,7.32,0,0,1-1.42-.13,7.76,7.76,0,0,1-1.16-.32,5.56,5.56,0,0,1-.86-.39,2.27,2.27,0,0,1-.48-.34.86.86,0,0,1-.2-.36,2.09,2.09,0,0,1-.06-.58,3.25,3.25,0,0,1,0-.43,1,1,0,0,1,.07-.28.3.3,0,0,1,.12-.15.32.32,0,0,1,.16,0,1,1,0,0,1,.46.2,7.29,7.29,0,0,0,.77.44,7.46,7.46,0,0,0,1.13.44,5.18,5.18,0,0,0,1.53.21,3.91,3.91,0,0,0,1.21-.18,2.84,2.84,0,0,0,.94-.5,2.15,2.15,0,0,0,.61-.79,2.58,2.58,0,0,0,.21-1.07,2,2,0,0,0-.29-1.11,3,3,0,0,0-.78-.81,6.81,6.81,0,0,0-1.1-.63l-1.26-.59a13.8,13.8,0,0,1-1.26-.66,5.33,5.33,0,0,1-1.09-.86,4,4,0,0,1-.78-1.16,3.86,3.86,0,0,1-.3-1.59,4,4,0,0,1,.35-1.7,3.5,3.5,0,0,1,1-1.25,4.3,4.3,0,0,1,1.47-.77,6.19,6.19,0,0,1,1.84-.26,6,6,0,0,1,1,.09,7,7,0,0,1,1,.23,5.39,5.39,0,0,1,.81.33,2.07,2.07,0,0,1,.46.29.92.92,0,0,1,.15.18.67.67,0,0,1,.06.16,1.69,1.69,0,0,1,0,.24q0,.14,0,.36a3.59,3.59,0,0,1,0,.38,1.45,1.45,0,0,1-.05.28.34.34,0,0,1-.1.16.23.23,0,0,1-.15.05,1,1,0,0,1-.41-.16l-.68-.37a6,6,0,0,0-.95-.38,4.12,4.12,0,0,0-1.23-.17,3.24,3.24,0,0,0-1.11.17,2.26,2.26,0,0,0-.78.45,1.8,1.8,0,0,0-.46.67,2.22,2.22,0,0,0-.15.82,2,2,0,0,0,.29,1.09,3,3,0,0,0,.78.81,7,7,0,0,0,1.11.65l1.27.59q.65.3,1.27.66a5.33,5.33,0,0,1,1.11.85,3.85,3.85,0,0,1,.79,1.15A3.79,3.79,0,0,1,109.15,21.14Z"/><path class="cls-35" d="M29.7,24.57a2.57,2.57,0,0,1,0,.37.78.78,0,0,1-.08.26.4.4,0,0,1-.13.15.32.32,0,0,1-.17,0H22a.83.83,0,0,1-.51-.18.76.76,0,0,1-.24-.64V11a.76.76,0,0,1,.24-.64.83.83,0,0,1,.51-.18h7.22a.32.32,0,0,1,.17,0,.33.33,0,0,1,.12.15,1.2,1.2,0,0,1,.08.26,2.24,2.24,0,0,1,0,.39,2.08,2.08,0,0,1,0,.37,1.08,1.08,0,0,1-.08.26.33.33,0,0,1-.12.15.32.32,0,0,1-.17,0h-6v4.78h5.1a.29.29,0,0,1,.17.05.43.43,0,0,1,.13.15.77.77,0,0,1,.08.26,2.8,2.8,0,0,1,0,.39,2.44,2.44,0,0,1,0,.36.75.75,0,0,1-.08.25.33.33,0,0,1-.13.14.36.36,0,0,1-.17,0h-5.1v5.44h6a.32.32,0,0,1,.17,0,.41.41,0,0,1,.13.15.72.72,0,0,1,.08.26A2.77,2.77,0,0,1,29.7,24.57Z"/><path class="cls-35" d="M39.15,25.06a.57.57,0,0,1-.13.21.56.56,0,0,1-.23.13,1.68,1.68,0,0,1-.38.06l-.57,0h-.45l-.34,0-.24-.05a.61.61,0,0,1-.17-.08.37.37,0,0,1-.11-.11.82.82,0,0,1-.08-.16l-5-14.14a1.45,1.45,0,0,1-.1-.42.27.27,0,0,1,.1-.24.67.67,0,0,1,.34-.11l.64,0,.52,0a1,1,0,0,1,.3.06.37.37,0,0,1,.16.12,1,1,0,0,1,.1.19L37.9,23.33h0l4.25-12.78a.9.9,0,0,1,.08-.21.32.32,0,0,1,.16-.13,1.2,1.2,0,0,1,.33-.06l.56,0a4.4,4.4,0,0,1,.58,0,.48.48,0,0,1,.29.11.29.29,0,0,1,.06.24,1.94,1.94,0,0,1-.11.42Z"/><path class="cls-35" d="M55.13,24.57a2.57,2.57,0,0,1,0,.37.78.78,0,0,1-.08.26.4.4,0,0,1-.13.15.32.32,0,0,1-.17,0h-7.3a.83.83,0,0,1-.51-.18.76.76,0,0,1-.24-.64V11a.76.76,0,0,1,.24-.64.83.83,0,0,1,.51-.18h7.22a.32.32,0,0,1,.17,0,.33.33,0,0,1,.12.15,1.2,1.2,0,0,1,.08.26A2.24,2.24,0,0,1,55,11a2.08,2.08,0,0,1,0,.37,1.08,1.08,0,0,1-.08.26.33.33,0,0,1-.12.15.32.32,0,0,1-.17,0h-6v4.78h5.1a.29.29,0,0,1,.17.05.43.43,0,0,1,.13.15.77.77,0,0,1,.08.26,2.8,2.8,0,0,1,0,.39,2.44,2.44,0,0,1,0,.36.75.75,0,0,1-.08.25.33.33,0,0,1-.13.14.36.36,0,0,1-.17,0h-5.1v5.44h6a.32.32,0,0,1,.17,0,.41.41,0,0,1,.13.15.72.72,0,0,1,.08.26A2.77,2.77,0,0,1,55.13,24.57Z"/><path class="cls-35" d="M69.93,24.57a.92.92,0,0,1-.08.4.79.79,0,0,1-.49.42,1.1,1.1,0,0,1-.32,0h-.67a2.12,2.12,0,0,1-.55-.06,1.24,1.24,0,0,1-.45-.24,2.39,2.39,0,0,1-.43-.46,6.08,6.08,0,0,1-.45-.75l-4.64-8.66q-.36-.67-.73-1.41t-.69-1.43h0q0,.85,0,1.73t0,1.75V25.1a.28.28,0,0,1,0,.16.31.31,0,0,1-.17.12l-.31.07a4.09,4.09,0,0,1-1,0,1.6,1.6,0,0,1-.3-.07.31.31,0,0,1-.16-.12.29.29,0,0,1,0-.16v-14a.78.78,0,0,1,.27-.67,1,1,0,0,1,.58-.2h1a2.5,2.5,0,0,1,.59.06,1.24,1.24,0,0,1,.43.19,1.68,1.68,0,0,1,.36.38,5.17,5.17,0,0,1,.37.61l3.57,6.68.64,1.19.59,1.15.56,1.11.55,1.1h0q0-.93,0-1.93t0-1.93V10.53a.26.26,0,0,1,0-.15.4.4,0,0,1,.17-.12,1.1,1.1,0,0,1,.31-.08l.5,0,.47,0a1,1,0,0,1,.31.08.4.4,0,0,1,.16.12.26.26,0,0,1,0,.15Z"/><path class="cls-35" d="M83.51,11.06a2.85,2.85,0,0,1,0,.39.83.83,0,0,1-.08.26.37.37,0,0,1-.13.15.32.32,0,0,1-.17,0H78.83V25.1a.3.3,0,0,1,0,.16.32.32,0,0,1-.17.11l-.31.07a4,4,0,0,1-1,0,1.76,1.76,0,0,1-.32-.07.31.31,0,0,1-.16-.11.29.29,0,0,1,0-.16V11.91H72.53a.32.32,0,0,1-.17,0,.33.33,0,0,1-.12-.15,1.08,1.08,0,0,1-.08-.26,2.23,2.23,0,0,1,0-.39,2.34,2.34,0,0,1,0-.39,1.2,1.2,0,0,1,.08-.28.33.33,0,0,1,.12-.15.32.32,0,0,1,.17,0H83.11a.32.32,0,0,1,.17,0,.37.37,0,0,1,.13.15.92.92,0,0,1,.08.28A3,3,0,0,1,83.51,11.06Z"/><path class="cls-35" d="M97.78,17.62A11.8,11.8,0,0,1,97.34,21,7,7,0,0,1,96,23.47a5.67,5.67,0,0,1-2.17,1.6,7.7,7.7,0,0,1-3,.56,7.84,7.84,0,0,1-3-.51,5.23,5.23,0,0,1-2.07-1.49,6.35,6.35,0,0,1-1.22-2.42,12.51,12.51,0,0,1-.4-3.33,11.49,11.49,0,0,1,.44-3.27,6.82,6.82,0,0,1,1.31-2.5,5.78,5.78,0,0,1,2.18-1.59,8.66,8.66,0,0,1,6-.05,5.3,5.3,0,0,1,2.08,1.48,6.28,6.28,0,0,1,1.23,2.4A12,12,0,0,1,97.78,17.62Zm-2.14.14a11.91,11.91,0,0,0-.23-2.4,5.54,5.54,0,0,0-.76-1.93,3.69,3.69,0,0,0-1.43-1.28A4.8,4.8,0,0,0,91,11.7a4.51,4.51,0,0,0-2.21.49,4.16,4.16,0,0,0-1.45,1.32,5.47,5.47,0,0,0-.8,1.92,10.76,10.76,0,0,0-.24,2.31,12.78,12.78,0,0,0,.22,2.47,5.53,5.53,0,0,0,.75,1.95,3.61,3.61,0,0,0,1.42,1.27,4.87,4.87,0,0,0,2.23.45,4.61,4.61,0,0,0,2.23-.49,4,4,0,0,0,1.46-1.33,5.64,5.64,0,0,0,.79-1.95A11.25,11.25,0,0,0,95.64,17.76Z"/><path class="cls-35" d="M109.15,21.14a4.41,4.41,0,0,1-.39,1.91,4.1,4.1,0,0,1-1.09,1.42,4.74,4.74,0,0,1-1.65.88,6.86,6.86,0,0,1-2,.29,7.32,7.32,0,0,1-1.42-.13,7.76,7.76,0,0,1-1.16-.32,5.61,5.61,0,0,1-.86-.39,2.29,2.29,0,0,1-.48-.34.87.87,0,0,1-.2-.36,2.12,2.12,0,0,1-.06-.58,3.18,3.18,0,0,1,0-.43,1,1,0,0,1,.07-.28.31.31,0,0,1,.12-.15.32.32,0,0,1,.17,0,1,1,0,0,1,.46.2,7.22,7.22,0,0,0,.77.44,7.51,7.51,0,0,0,1.14.44,5.19,5.19,0,0,0,1.53.21,3.9,3.9,0,0,0,1.2-.18,2.83,2.83,0,0,0,.94-.5,2.16,2.16,0,0,0,.61-.79,2.58,2.58,0,0,0,.21-1.07,2,2,0,0,0-.29-1.11,3,3,0,0,0-.78-.81,6.85,6.85,0,0,0-1.1-.63l-1.26-.59a13.73,13.73,0,0,1-1.26-.66,5.32,5.32,0,0,1-1.09-.86,4,4,0,0,1-.78-1.16,3.85,3.85,0,0,1-.3-1.59,4,4,0,0,1,.35-1.7,3.49,3.49,0,0,1,1-1.25,4.31,4.31,0,0,1,1.47-.77,6.18,6.18,0,0,1,1.84-.26,6,6,0,0,1,1,.09,6.92,6.92,0,0,1,1,.24,5.34,5.34,0,0,1,.81.33,2.08,2.08,0,0,1,.46.29.93.93,0,0,1,.15.18.68.68,0,0,1,.06.16,1.77,1.77,0,0,1,0,.24c0,.09,0,.22,0,.36a3.6,3.6,0,0,1,0,.38,1.39,1.39,0,0,1-.05.28.34.34,0,0,1-.1.16.23.23,0,0,1-.15.05.94.94,0,0,1-.41-.16l-.68-.37a6,6,0,0,0-.95-.38,4.13,4.13,0,0,0-1.23-.17,3.25,3.25,0,0,0-1.11.17,2.27,2.27,0,0,0-.78.45,1.79,1.79,0,0,0-.46.67,2.23,2.23,0,0,0-.15.82,2,2,0,0,0,.29,1.09,3,3,0,0,0,.78.81,6.93,6.93,0,0,0,1.11.65l1.27.59q.65.3,1.27.66a5.31,5.31,0,0,1,1.11.85,3.86,3.86,0,0,1,.79,1.15A3.79,3.79,0,0,1,109.15,21.14Z"/></g></g></svg>